<svg width="34" height="23" viewBox="0 0 34 23" fill="none" xmlns="http://www.w3.org/2000/svg">
<path d="M7.55556 4.6V0H34V4.6H7.55556ZM7.55556 13.8V9.2H34V13.8H7.55556ZM7.55556 23V18.4H34V23H7.55556ZM1.88889 4.6C1.3537 4.6 0.905408 4.3792 0.544 3.9376C0.182593 3.496 0.00125926 2.95013 0 2.3C0 1.64833 0.181334 1.10247 0.544 0.6624C0.906667 0.222333 1.35496 0.00153333 1.88889 0C2.42407 0 2.873 0.2208 3.23567 0.6624C3.59833 1.104 3.77904 1.64987 3.77778 2.3C3.77778 2.95167 3.59644 3.4983 3.23378 3.9399C2.87111 4.3815 2.42281 4.60153 1.88889 4.6ZM1.88889 13.8C1.3537 13.8 0.905408 13.5792 0.544 13.1376C0.182593 12.696 0.00125926 12.1501 0 11.5C0 10.8483 0.181334 10.3025 0.544 9.8624C0.906667 9.42233 1.35496 9.20153 1.88889 9.2C2.42407 9.2 2.873 9.4208 3.23567 9.8624C3.59833 10.304 3.77904 10.8499 3.77778 11.5C3.77778 12.1517 3.59644 12.6983 3.23378 13.1399C2.87111 13.5815 2.42281 13.8015 1.88889 13.8ZM1.88889 23C1.3537 23 0.905408 22.7792 0.544 22.3376C0.182593 21.896 0.00125926 21.3501 0 20.7C0 20.0483 0.181334 19.5025 0.544 19.0624C0.906667 18.6223 1.35496 18.4015 1.88889 18.4C2.42407 18.4 2.873 18.6208 3.23567 19.0624C3.59833 19.504 3.77904 20.0499 3.77778 20.7C3.77778 21.3517 3.59644 21.8983 3.23378 22.3399C2.87111 22.7815 2.42281 23.0015 1.88889 23Z" fill="#333333"/>
</svg>
