<svg width="20" height="24" viewBox="0 0 20 24" fill="none" xmlns="http://www.w3.org/2000/svg">
<path d="M14.8077 12.9979H10.6945V17.9979C10.6945 18.2631 10.6078 18.5175 10.4535 18.705C10.2993 18.8926 10.09 18.9979 9.87184 18.9979C9.65365 18.9979 9.44441 18.8926 9.29013 18.705C9.13586 18.5175 9.04918 18.2631 9.04918 17.9979V12.9979H4.93593C4.71774 12.9979 4.5085 12.8926 4.35422 12.705C4.19995 12.5175 4.11327 12.2632 4.11327 11.9979C4.11327 11.7327 4.19995 11.4784 4.35422 11.2908C4.5085 11.1033 4.71774 10.9979 4.93593 10.9979H9.04918V5.99795C9.04918 5.73274 9.13586 5.47838 9.29013 5.29085C9.44441 5.10331 9.65365 4.99795 9.87184 4.99795C10.09 4.99795 10.2993 5.10331 10.4535 5.29085C10.6078 5.47838 10.6945 5.73274 10.6945 5.99795V10.9979H14.8077C15.0259 10.9979 15.2352 11.1033 15.3894 11.2908C15.5437 11.4784 15.6304 11.7327 15.6304 11.9979C15.6304 12.2632 15.5437 12.5175 15.3894 12.705C15.2352 12.8926 15.0259 12.9979 14.8077 12.9979Z" fill="white"/>
</svg>
