<svg width="36" height="39" viewBox="0 0 36 39" fill="none" xmlns="http://www.w3.org/2000/svg">
<path fill-rule="evenodd" clip-rule="evenodd" d="M25.875 17.0625C25.875 18.503 25.6131 19.9293 25.1043 21.2601C24.5955 22.5909 23.8497 23.8001 22.9095 24.8186C21.9693 25.8371 20.8531 26.6451 19.6247 27.1963C18.3963 27.7476 17.0796 28.0313 15.75 28.0313C14.4204 28.0313 13.1038 27.7476 11.8753 27.1963C10.6469 26.6451 9.53075 25.8371 8.59056 24.8186C7.65036 23.8001 6.90456 22.5909 6.39573 21.2601C5.8869 19.9293 5.62501 18.503 5.62501 17.0625C5.62501 14.1534 6.69175 11.3635 8.59056 9.30645C10.4894 7.24941 13.0647 6.09377 15.75 6.09377C18.4353 6.09377 21.0107 7.24941 22.9095 9.30645C24.8083 11.3635 25.875 14.1534 25.875 17.0625ZM24.03 28.6163C21.3174 30.8977 17.9041 31.9735 14.4851 31.6245C11.066 31.2755 7.89829 29.5281 5.6267 26.7379C3.35511 23.9478 2.15045 20.3246 2.25797 16.6061C2.36548 12.8876 3.77708 9.35322 6.20541 6.72253C8.63373 4.09185 11.8962 2.56261 15.3287 2.44614C18.7612 2.32967 22.1056 3.63471 24.6812 6.0956C27.2567 8.55649 28.8697 11.9882 29.1918 15.6922C29.514 19.3961 28.521 23.0938 26.415 26.0325L32.6925 32.8331C32.8583 33.0005 32.9913 33.2023 33.0835 33.4266C33.1758 33.6508 33.2253 33.8929 33.2293 34.1384C33.2333 34.3838 33.1917 34.6277 33.1068 34.8553C33.0219 35.0829 32.8956 35.2897 32.7353 35.4633C32.5751 35.6369 32.3842 35.7738 32.1741 35.8657C31.964 35.9576 31.7389 36.0028 31.5123 35.9985C31.2858 35.9941 31.0623 35.9404 30.8553 35.8405C30.6483 35.7406 30.462 35.5965 30.3075 35.4169L24.03 28.6163Z" fill="#333333"/>
</svg>
