<svg width="59" height="53" viewBox="0 0 59 53" fill="none" xmlns="http://www.w3.org/2000/svg">
<path d="M17.9568 21.5C16.3255 21.5502 14.9913 22.1931 13.9542 23.4286H11.9302C11.1045 23.4286 10.4097 23.2252 9.84583 22.8184C9.28194 22.4116 9 21.8164 9 21.0329C9 17.4872 9.62431 15.7143 10.8729 15.7143C10.9333 15.7143 11.1523 15.8198 11.5299 16.0307C11.9076 16.2416 12.3984 16.4551 13.0026 16.671C13.6068 16.887 14.2059 16.995 14.8 16.995C15.4747 16.995 16.1443 16.8795 16.8089 16.6484C16.7585 17.0201 16.7333 17.3516 16.7333 17.6429C16.7333 19.0391 17.1411 20.3248 17.9568 21.5ZM34.1333 31.0977C34.1333 32.303 33.7658 33.2547 33.0307 33.9528C32.2957 34.6509 31.3189 35 30.1005 35H16.8995C15.6811 35 14.7043 34.6509 13.9693 33.9528C13.2342 33.2547 12.8667 32.303 12.8667 31.0977C12.8667 30.5653 12.8843 30.0455 12.9195 29.5382C12.9548 29.031 13.0253 28.4835 13.131 27.8959C13.2367 27.3083 13.3701 26.7634 13.5312 26.2612C13.6924 25.7589 13.9089 25.2693 14.1807 24.7921C14.4526 24.315 14.7648 23.9082 15.1172 23.5717C15.4696 23.2352 15.9001 22.9665 16.4086 22.7656C16.9171 22.5647 17.4785 22.4643 18.0927 22.4643C18.1934 22.4643 18.4099 22.5723 18.7422 22.7882C19.0745 23.0042 19.442 23.2453 19.8448 23.5114C20.2476 23.7776 20.7863 24.0187 21.4609 24.2347C22.1356 24.4506 22.8153 24.5586 23.5 24.5586C24.1847 24.5586 24.8644 24.4506 25.5391 24.2347C26.2137 24.0187 26.7524 23.7776 27.1552 23.5114C27.558 23.2453 27.9255 23.0042 28.2578 22.7882C28.5901 22.5723 28.8066 22.4643 28.9073 22.4643C29.5215 22.4643 30.0829 22.5647 30.5914 22.7656C31.0999 22.9665 31.5304 23.2352 31.8828 23.5717C32.2352 23.9082 32.5474 24.315 32.8193 24.7921C33.0911 25.2693 33.3076 25.7589 33.4688 26.2612C33.6299 26.7634 33.7633 27.3083 33.869 27.8959C33.9747 28.4835 34.0452 29.031 34.0805 29.5382C34.1157 30.0455 34.1333 30.5653 34.1333 31.0977ZM18.6667 11.8571C18.6667 12.9219 18.2891 13.8309 17.5339 14.5843C16.7786 15.3376 15.8674 15.7143 14.8 15.7143C13.7326 15.7143 12.8214 15.3376 12.0661 14.5843C11.3109 13.8309 10.9333 12.9219 10.9333 11.8571C10.9333 10.7924 11.3109 9.88337 12.0661 9.13002C12.8214 8.37667 13.7326 8 14.8 8C15.8674 8 16.7786 8.37667 17.5339 9.13002C18.2891 9.88337 18.6667 10.7924 18.6667 11.8571ZM29.3 17.6429C29.3 19.24 28.7336 20.6035 27.6008 21.7335C26.468 22.8636 25.101 23.4286 23.5 23.4286C21.899 23.4286 20.532 22.8636 19.3992 21.7335C18.2664 20.6035 17.7 19.24 17.7 17.6429C17.7 16.0458 18.2664 14.6822 19.3992 13.5522C20.532 12.4222 21.899 11.8571 23.5 11.8571C25.101 11.8571 26.468 12.4222 27.6008 13.5522C28.7336 14.6822 29.3 16.0458 29.3 17.6429ZM38 21.0329C38 21.8164 37.7181 22.4116 37.1542 22.8184C36.5903 23.2252 35.8955 23.4286 35.0698 23.4286H33.0458C32.0087 22.1931 30.6745 21.5502 29.0432 21.5C29.8589 20.3248 30.2667 19.0391 30.2667 17.6429C30.2667 17.3516 30.2415 17.0201 30.1911 16.6484C30.8557 16.8795 31.5253 16.995 32.2 16.995C32.7941 16.995 33.3932 16.887 33.9974 16.671C34.6016 16.4551 35.0924 16.2416 35.4701 16.0307C35.8477 15.8198 36.0667 15.7143 36.1271 15.7143C37.3757 15.7143 38 17.4872 38 21.0329ZM36.0667 11.8571C36.0667 12.9219 35.6891 13.8309 34.9339 14.5843C34.1786 15.3376 33.2674 15.7143 32.2 15.7143C31.1326 15.7143 30.2214 15.3376 29.4661 14.5843C28.7109 13.8309 28.3333 12.9219 28.3333 11.8571C28.3333 10.7924 28.7109 9.88337 29.4661 9.13002C30.2214 8.37667 31.1326 8 32.2 8C33.2674 8 34.1786 8.37667 34.9339 9.13002C35.6891 9.88337 36.0667 10.7924 36.0667 11.8571Z" fill="#333333"/>
</svg>
