<svg width="65" height="63" viewBox="0 0 65 63" fill="none" xmlns="http://www.w3.org/2000/svg">
<path d="M5.41669 49.875C5.41669 54.3375 8.93752 57.75 13.5417 57.75H51.4584C56.0625 57.75 59.5834 54.3375 59.5834 49.875V28.875H5.41669V49.875ZM51.4584 10.5H46.0417V7.875C46.0417 6.3 44.9584 5.25 43.3334 5.25C41.7084 5.25 40.625 6.3 40.625 7.875V10.5H24.375V7.875C24.375 6.3 23.2917 5.25 21.6667 5.25C20.0417 5.25 18.9584 6.3 18.9584 7.875V10.5H13.5417C8.93752 10.5 5.41669 13.9125 5.41669 18.375V23.625H59.5834V18.375C59.5834 13.9125 56.0625 10.5 51.4584 10.5Z" fill="#5E5A5A"/>
</svg>
