<svg width="41" height="38" viewBox="0 0 41 38" fill="none" xmlns="http://www.w3.org/2000/svg">
<path d="M20.5 3.16669C11.0649 3.16669 3.41666 10.2553 3.41666 19C3.41666 27.7448 11.0649 34.8334 20.5 34.8334C29.9351 34.8334 37.5833 27.7448 37.5833 19C37.5833 10.2553 29.9351 3.16669 20.5 3.16669Z" stroke="#333333" stroke-width="1.5" stroke-linecap="round" stroke-linejoin="round"/>
<path d="M7.2963 29.0478C7.2963 29.0478 11.1042 24.5417 20.5 24.5417C29.8958 24.5417 33.7054 29.0478 33.7054 29.0478M20.5 19C21.8592 19 23.1628 18.4996 24.1239 17.6088C25.0851 16.718 25.625 15.5098 25.625 14.25C25.625 12.9902 25.0851 11.782 24.1239 10.8912C23.1628 10.0004 21.8592 9.5 20.5 9.5C19.1408 9.5 17.8372 10.0004 16.8761 10.8912C15.915 11.782 15.375 12.9902 15.375 14.25C15.375 15.5098 15.915 16.718 16.8761 17.6088C17.8372 18.4996 19.1408 19 20.5 19Z" stroke="#333333" stroke-width="1.5" stroke-linecap="round" stroke-linejoin="round"/>
</svg>
