<svg width="37" height="29" viewBox="0 0 37 29" fill="none" xmlns="http://www.w3.org/2000/svg">
<path d="M16.5542 28.1869C16.0736 28.6923 15.4134 28.9845 14.7188 28.9994C14.0242 29.0143 13.3521 28.7506 12.8502 28.2664L0.807598 16.6424C0.305897 16.158 0.0156222 15.4927 0.000608223 14.7928C-0.0144058 14.093 0.247071 13.4159 0.727535 12.9104L12.2606 0.780584C12.7443 0.289213 13.4003 0.00899043 14.0872 0.000268111C14.7742 -0.00845229 15.4372 0.255026 15.9333 0.733957C16.4295 1.21289 16.7192 1.86895 16.74 2.56084C16.7608 3.25273 16.5111 3.92509 16.0446 4.43311L9.11173 11.9568L33.9971 11.423C34.6919 11.4081 35.3641 11.6718 35.866 12.1563C36.3679 12.6407 36.6583 13.3061 36.6733 14.0061C36.6883 14.7061 36.4267 15.3833 35.9461 15.8888C35.4654 16.3943 34.8051 16.6867 34.1104 16.7016L9.22498 17.2355L16.4742 24.4549C16.9759 24.9393 17.2661 25.6046 17.2811 26.3045C17.2962 27.0043 17.0347 27.6814 16.5542 28.1869Z" fill="#333333"/>
</svg>
