<svg width="47" height="61" viewBox="0 0 47 61" fill="none" xmlns="http://www.w3.org/2000/svg">
<rect width="1440" height="1024" transform="translate(-723.026 -469.259) scale(1.00851)" fill="white"/>
<path fill-rule="evenodd" clip-rule="evenodd" d="M7.79193 1.69444C7.79193 1.24505 7.92875 0.81406 8.1723 0.496291C8.41584 0.178521 8.74616 0 9.09058 0H37.661C38.0054 0 38.3357 0.178521 38.5793 0.496291C38.8228 0.81406 38.9596 1.24505 38.9596 1.69444V3.38888H45.4529C45.7973 3.38888 46.1277 3.5674 46.3712 3.88517C46.6148 4.20294 46.7516 4.63393 46.7516 5.08332V15.25C46.7516 17.4969 46.0675 19.6519 44.8497 21.2407C43.632 22.8296 41.9804 23.7222 40.2583 23.7222H38.0727C37.1444 27.1401 35.5335 30.1725 33.4064 32.5061C31.2792 34.8398 28.7131 36.3899 25.9731 36.9964V47.4444H33.765C34.1095 47.4444 34.4398 47.6229 34.6833 47.9406C34.9269 48.2584 35.0637 48.6894 35.0637 49.1388V59.3054C35.0637 59.7548 34.9269 60.1858 34.6833 60.5036C34.4398 60.8214 34.1095 60.9999 33.765 60.9999H12.9865C12.6421 60.9999 12.3118 60.8214 12.0683 60.5036C11.8247 60.1858 11.6879 59.7548 11.6879 59.3054V49.1388C11.6879 48.6894 11.8247 48.2584 12.0683 47.9406C12.3118 47.6229 12.6421 47.4444 12.9865 47.4444H20.7785V36.9964C18.0385 36.3899 15.4723 34.8398 13.3452 32.5061C11.2181 30.1725 9.60715 27.1401 8.67891 23.7222H6.49327C4.77115 23.7222 3.11956 22.8296 1.90184 21.2407C0.684111 19.6519 0 17.4969 0 15.25V5.08332C0 4.63393 0.136822 4.20294 0.380367 3.88517C0.623913 3.5674 0.95423 3.38888 1.29865 3.38888H7.79193V1.69444ZM38.9596 16.9444V6.77776H44.1543V15.25C44.1543 16.5982 43.7438 17.8911 43.0132 18.8444C42.2825 19.7977 41.2916 20.3333 40.2583 20.3333H38.9596V16.9444ZM7.79193 6.77776H2.59731V15.25C2.59731 16.5982 3.00778 17.8911 3.73841 18.8444C4.46905 19.7977 5.46 20.3333 6.49327 20.3333H7.79193V16.9444V6.77776Z" fill="#333333"/>
</svg>
