<svg width="36" height="41" viewBox="0 0 36 41" fill="none" xmlns="http://www.w3.org/2000/svg">
<rect width="1440" height="1024" transform="translate(-965 -477)" fill="white"/>
<path d="M18 0C20.3869 0 22.6761 1.07113 24.364 2.97775C26.0518 4.88437 27 7.4703 27 10.1667C27 12.863 26.0518 15.449 24.364 17.3556C22.6761 19.2622 20.3869 20.3333 18 20.3333C15.6131 20.3333 13.3239 19.2622 11.636 17.3556C9.94821 15.449 9 12.863 9 10.1667C9 7.4703 9.94821 4.88437 11.636 2.97775C13.3239 1.07113 15.6131 0 18 0ZM18 25.4167C27.945 25.4167 36 29.9663 36 35.5833V40.6667H0V35.5833C0 29.9663 8.055 25.4167 18 25.4167Z" fill="#6B6B6B"/>
</svg>
