<svg width="24" height="24" viewBox="0 0 24 24" fill="none" xmlns="http://www.w3.org/2000/svg">
<path d="M10.243 16.3139L6 12.0699L7.414 10.6559L10.243 13.4839L15.899 7.8269L17.314 9.2419L10.243 16.3139Z" fill="#ED5050"/>
<path fill-rule="evenodd" clip-rule="evenodd" d="M1 5C1 3.93913 1.42143 2.92172 2.17157 2.17157C2.92172 1.42143 3.93913 1 5 1H19C20.0609 1 21.0783 1.42143 21.8284 2.17157C22.5786 2.92172 23 3.93913 23 5V19C23 20.0609 22.5786 21.0783 21.8284 21.8284C21.0783 22.5786 20.0609 23 19 23H5C3.93913 23 2.92172 22.5786 2.17157 21.8284C1.42143 21.0783 1 20.0609 1 19V5ZM5 3H19C19.5304 3 20.0391 3.21071 20.4142 3.58579C20.7893 3.96086 21 4.46957 21 5V19C21 19.5304 20.7893 20.0391 20.4142 20.4142C20.0391 20.7893 19.5304 21 19 21H5C4.46957 21 3.96086 20.7893 3.58579 20.4142C3.21071 20.0391 3 19.5304 3 19V5C3 4.46957 3.21071 3.96086 3.58579 3.58579C3.96086 3.21071 4.46957 3 5 3Z" fill="#ED5050"/>
</svg>
