<svg width="48" height="45" viewBox="0 0 48 45" fill="none" xmlns="http://www.w3.org/2000/svg">
<g clip-path="url(#clip0_3_125)">
<path d="M35.2 33H32V30H35.2V33ZM25.6 33H28.8V30H25.6V33ZM41.6 33H38.4V30H41.6V33Z" fill="#6B6B6B"/>
<path fill-rule="evenodd" clip-rule="evenodd" d="M9.6 18V10.5C9.6 9.12112 9.8897 7.75574 10.4525 6.48182C11.0154 5.20791 11.8404 4.05039 12.8804 3.07538C13.9204 2.10036 15.1551 1.32694 16.5139 0.799265C17.8728 0.27159 19.3292 0 20.8 0C22.2708 0 23.7272 0.27159 25.0861 0.799265C26.4449 1.32694 27.6796 2.10036 28.7196 3.07538C29.7596 4.05039 30.5846 5.20791 31.1474 6.48182C31.7103 7.75574 32 9.12112 32 10.5V18H36.8C38.073 18 39.2939 18.4741 40.1941 19.318C41.0943 20.1619 41.6 21.3065 41.6 22.5V24.15C43.4085 24.4943 45.0344 25.4141 46.2022 26.7536C47.37 28.0931 48.008 29.77 48.008 31.5C48.008 33.23 47.37 34.9069 46.2022 36.2464C45.0344 37.5859 43.4085 38.5057 41.6 38.85V40.5C41.6 41.6935 41.0943 42.8381 40.1941 43.682C39.2939 44.5259 38.073 45 36.8 45H4.8C3.52696 45 2.30606 44.5259 1.40589 43.682C0.505713 42.8381 0 41.6935 0 40.5L0 22.5C0 21.3065 0.505713 20.1619 1.40589 19.318C2.30606 18.4741 3.52696 18 4.8 18H9.6ZM12.8 10.5C12.8 8.51088 13.6429 6.60322 15.1431 5.1967C16.6434 3.79018 18.6783 3 20.8 3C22.9217 3 24.9566 3.79018 26.4569 5.1967C27.9571 6.60322 28.8 8.51088 28.8 10.5V18H12.8V10.5ZM27.2 27C25.927 27 24.7061 27.4741 23.8059 28.318C22.9057 29.1619 22.4 30.3065 22.4 31.5C22.4 32.6935 22.9057 33.8381 23.8059 34.682C24.7061 35.5259 25.927 36 27.2 36H40C41.273 36 42.4939 35.5259 43.3941 34.682C44.2943 33.8381 44.8 32.6935 44.8 31.5C44.8 30.3065 44.2943 29.1619 43.3941 28.318C42.4939 27.4741 41.273 27 40 27H27.2Z" fill="#6B6B6B"/>
</g>
<defs>
<clipPath id="clip0_3_125">
<rect width="48" height="45" fill="white"/>
</clipPath>
</defs>
</svg>
