<svg width="47" height="30" viewBox="0 0 47 30" fill="none" xmlns="http://www.w3.org/2000/svg">
<path d="M4.7 30C3.4075 30 2.30143 29.6331 1.3818 28.8994C0.462167 28.1656 0.00156667 27.2825 0 26.25V3.75C0 2.71875 0.4606 1.83625 1.3818 1.1025C2.303 0.36875 3.40907 0.00125 4.7 0H42.3C43.5925 0 44.6993 0.3675 45.6205 1.1025C46.5417 1.8375 47.0016 2.72 47 3.75V26.25C47 27.2812 46.5402 28.1644 45.6205 28.8994C44.7009 29.6344 43.5941 30.0012 42.3 30H4.7ZM23.5 16.875L4.7 7.5V26.25H42.3V7.5L23.5 16.875ZM23.5 13.125L42.3 3.75H4.7L23.5 13.125ZM4.7 7.5V3.75V26.25V7.5Z" fill="#6B6B6B"/>
</svg>
