<svg width="23" height="29" viewBox="0 0 23 29" fill="none" xmlns="http://www.w3.org/2000/svg">
<path d="M4.92857 0C2.20759 0 0 2.43555 0 5.4375V23.5625C0 26.5645 2.20759 29 4.92857 29H21.3571C22.2658 29 23 28.19 23 27.1875C23 26.185 22.2658 25.375 21.3571 25.375V21.75C22.2658 21.75 23 20.94 23 19.9375V1.8125C23 0.809961 22.2658 0 21.3571 0H19.7143H4.92857ZM4.92857 21.75H18.0714V25.375H4.92857C4.01987 25.375 3.28571 24.565 3.28571 23.5625C3.28571 22.56 4.01987 21.75 4.92857 21.75ZM6.57143 8.15625C6.57143 7.65781 6.94107 7.25 7.39286 7.25H17.25C17.7018 7.25 18.0714 7.65781 18.0714 8.15625C18.0714 8.65469 17.7018 9.0625 17.25 9.0625H7.39286C6.94107 9.0625 6.57143 8.65469 6.57143 8.15625ZM7.39286 10.875H17.25C17.7018 10.875 18.0714 11.2828 18.0714 11.7812C18.0714 12.2797 17.7018 12.6875 17.25 12.6875H7.39286C6.94107 12.6875 6.57143 12.2797 6.57143 11.7812C6.57143 11.2828 6.94107 10.875 7.39286 10.875Z" fill="#333333"/>
</svg>
