<svg width="40" height="37" viewBox="0 0 40 37" fill="none" xmlns="http://www.w3.org/2000/svg">
<path d="M14.4083 31.6042C14.7684 32.7171 15.5069 33.693 16.5143 34.3868C17.5217 35.0806 18.7441 35.4553 20 35.4553C21.2559 35.4553 22.4783 35.0806 23.4857 34.3868C24.4931 33.693 25.2316 32.7171 25.5917 31.6042H14.4083ZM5 30.0625H35V25.4375L31.6667 20.8125V13.1042C31.6667 11.687 31.3649 10.2837 30.7786 8.97438C30.1923 7.66507 29.3329 6.4754 28.2496 5.47331C27.1662 4.47121 25.8801 3.6763 24.4646 3.13397C23.0492 2.59163 21.5321 2.3125 20 2.3125C18.4679 2.3125 16.9508 2.59163 15.5354 3.13397C14.1199 3.6763 12.8338 4.47121 11.7504 5.47331C10.6671 6.4754 9.80771 7.66507 9.22141 8.97438C8.6351 10.2837 8.33333 11.687 8.33333 13.1042V20.8125L5 25.4375V30.0625Z" fill="#333333"/>
</svg>
