<svg width="189" height="165" viewBox="0 0 189 165" fill="none" xmlns="http://www.w3.org/2000/svg">
<path d="M17.7188 107.89L58.3459 72.5503C59.9912 71.119 61.9445 69.9837 64.0943 69.2091C66.244 68.4345 68.5481 68.0358 70.875 68.0358C73.2019 68.0358 75.506 68.4345 77.6557 69.2091C79.8055 69.9837 81.7588 71.119 83.4041 72.5503L124.031 107.89M112.219 97.6151L123.315 87.9632C124.96 86.5319 126.913 85.3966 129.063 84.622C131.213 83.8474 133.517 83.4488 135.844 83.4488C138.171 83.4488 140.475 83.8474 142.624 84.622C144.774 85.3966 146.728 86.5319 148.373 87.9632L171.281 107.89M29.5312 133.579H159.469C162.602 133.579 165.606 132.496 167.821 130.569C170.037 128.642 171.281 126.028 171.281 123.303V41.1011C171.281 38.3759 170.037 35.7623 167.821 33.8354C165.606 31.9084 162.602 30.8258 159.469 30.8258H29.5312C26.3984 30.8258 23.3938 31.9084 21.1786 33.8354C18.9633 35.7623 17.7188 38.3759 17.7188 41.1011V123.303C17.7188 126.028 18.9633 128.642 21.1786 130.569C23.3938 132.496 26.3984 133.579 29.5312 133.579ZM112.219 56.514H112.282V56.5688H112.219V56.514ZM115.172 56.514C115.172 57.1953 114.861 57.8487 114.307 58.3304C113.753 58.8122 113.002 59.0828 112.219 59.0828C111.436 59.0828 110.684 58.8122 110.131 58.3304C109.577 57.8487 109.266 57.1953 109.266 56.514C109.266 55.8327 109.577 55.1793 110.131 54.6976C110.684 54.2158 111.436 53.9452 112.219 53.9452C113.002 53.9452 113.753 54.2158 114.307 54.6976C114.861 55.1793 115.172 55.8327 115.172 56.514Z" stroke="#333333" stroke-width="1.5" stroke-linecap="round" stroke-linejoin="round"/>
</svg>
