<svg width="501" height="227" viewBox="0 0 501 227" fill="none" xmlns="http://www.w3.org/2000/svg">
<rect width="500.674" height="227" rx="18" fill="#FAEEEE"/>
<ellipse cx="42.1731" cy="122" rx="32.4324" ry="29" fill="#D9D9D9"/>
<g clip-path="url(#clip0_9_451)">
<path d="M59.8939 104.333H22.4462C21.7368 104.333 21.0564 104.614 20.5548 105.114C20.0532 105.615 19.7714 106.293 19.7714 107V139C19.7714 139.707 20.0532 140.386 20.5548 140.886C21.0564 141.386 21.7368 141.667 22.4462 141.667H59.8939C60.6033 141.667 61.2837 141.386 61.7853 140.886C62.287 140.386 62.5688 139.707 62.5688 139V107C62.5688 106.293 62.287 105.615 61.7853 105.114C61.2837 104.614 60.6033 104.333 59.8939 104.333ZM22.4462 139V107H59.8939V139H22.4462Z" fill="#333333"/>
<path d="M29.0263 117.667C29.8198 117.667 30.5956 117.432 31.2554 116.993C31.9152 116.553 32.4295 115.928 32.7331 115.197C33.0368 114.466 33.1163 113.662 32.9615 112.886C32.8066 112.11 32.4245 111.398 31.8634 110.838C31.3023 110.279 30.5873 109.898 29.809 109.743C29.0307 109.589 28.224 109.668 27.4909 109.971C26.7577 110.274 26.1311 110.787 25.6902 111.444C25.2494 112.102 25.014 112.876 25.014 113.667C25.014 114.727 25.4368 115.745 26.1892 116.495C26.9416 117.245 27.9622 117.667 29.0263 117.667ZM29.0263 111.533C29.4501 111.531 29.8651 111.654 30.2188 111.886C30.5724 112.119 30.8488 112.451 31.0128 112.841C31.1768 113.231 31.2211 113.66 31.14 114.075C31.059 114.489 30.8562 114.871 30.5575 115.17C30.2588 115.47 29.8775 115.675 29.4621 115.758C29.0466 115.841 28.6157 115.8 28.2239 115.639C27.8321 115.478 27.4971 115.204 27.2614 114.853C27.0257 114.502 26.8998 114.089 26.8998 113.667C26.9033 113.105 27.1285 112.568 27.5265 112.171C27.9245 111.775 28.4634 111.55 29.0263 111.547V111.533Z" fill="#333333"/>
<path d="M47.5629 119.493L40.3409 126.693L34.9912 121.36C34.7406 121.112 34.4016 120.972 34.0483 120.972C33.695 120.972 33.356 121.112 33.1054 121.36L25.014 129.533V133.307L34.0951 124.253L38.4952 128.573L33.4799 133.573H37.1578L48.459 122.307L57.2191 131V127.24L49.4487 119.493C49.1981 119.245 48.8591 119.106 48.5058 119.106C48.1525 119.106 47.8135 119.245 47.5629 119.493Z" fill="#333333"/>
</g>
<line y1="-0.5" x2="469.504" y2="-0.5" transform="matrix(0.999999 -0.00138226 0.00131151 0.999999 19.4814 162.649)" stroke="#C2C2C2"/>
<line y1="-0.5" x2="469.504" y2="-0.5" transform="matrix(0.999999 -0.00138226 0.00131151 0.999999 19.4814 82.6489)" stroke="#C2C2C2"/>
<rect x="415.93" y="106" width="37.5907" height="33" rx="10" fill="#ED5050"/>
<rect x="415.43" y="105.5" width="38.5907" height="34" rx="10.5" stroke="black" stroke-opacity="0.46"/>
<path d="M439.924 123.415H435.925V127.998C435.925 128.241 435.84 128.474 435.69 128.646C435.54 128.818 435.337 128.915 435.125 128.915C434.913 128.915 434.709 128.818 434.559 128.646C434.409 128.474 434.325 128.241 434.325 127.998V123.415H430.326C430.114 123.415 429.91 123.318 429.761 123.146C429.611 122.974 429.526 122.741 429.526 122.498C429.526 122.255 429.611 122.022 429.761 121.85C429.91 121.678 430.114 121.582 430.326 121.582H434.325V116.998C434.325 116.755 434.409 116.522 434.559 116.35C434.709 116.178 434.913 116.082 435.125 116.082C435.337 116.082 435.54 116.178 435.69 116.35C435.84 116.522 435.925 116.755 435.925 116.998V121.582H439.924C440.136 121.582 440.339 121.678 440.489 121.85C440.639 122.022 440.723 122.255 440.723 122.498C440.723 122.741 440.639 122.974 440.489 123.146C440.339 123.318 440.136 123.415 439.924 123.415Z" fill="white"/>
<defs>
<clipPath id="clip0_9_451">
<rect width="48.1471" height="48" fill="white" transform="translate(17.0966 99)"/>
</clipPath>
</defs>
</svg>
