<svg width="59" height="53" viewBox="0 0 59 53" fill="none" xmlns="http://www.w3.org/2000/svg">
<g clip-path="url(#clip0_8_214)">
<path d="M18.2224 26.5C14.9036 26.5986 12.1892 27.8605 10.0792 30.2857H5.96146C4.2816 30.2857 2.86806 29.8864 1.72083 29.0879C0.573611 28.2893 0 27.1211 0 25.5831C0 18.623 1.27014 15.1429 3.81042 15.1429C3.93333 15.1429 4.37891 15.3499 5.14714 15.764C5.91536 16.178 6.91406 16.597 8.14323 17.0209C9.3724 17.4448 10.5913 17.6568 11.8 17.6568C13.1726 17.6568 14.5349 17.4301 15.887 16.9766C15.7845 17.7061 15.7333 18.3568 15.7333 18.9286C15.7333 21.6693 16.563 24.1931 18.2224 26.5ZM51.1333 45.3398C51.1333 47.7059 50.3856 49.5741 48.8901 50.9445C47.3946 52.3148 45.4075 53 42.9286 53H16.0714C13.5925 53 11.6054 52.3148 10.1099 50.9445C8.61441 49.5741 7.86667 47.7059 7.86667 45.3398C7.86667 44.2948 7.90252 43.2745 7.97422 42.2787C8.04592 41.283 8.18932 40.2084 8.40443 39.055C8.61953 37.9015 8.89097 36.8318 9.21875 35.846C9.54653 34.8601 9.98698 33.8989 10.5401 32.9623C11.0932 32.0258 11.7283 31.2272 12.4453 30.5667C13.1623 29.9062 14.0381 29.3787 15.0727 28.9844C16.1072 28.59 17.2493 28.3929 18.499 28.3929C18.7038 28.3929 19.1443 28.6048 19.8203 29.0287C20.4964 29.4527 21.2441 29.9259 22.0635 30.4484C22.883 30.9709 23.979 31.4441 25.3516 31.868C26.7241 32.2919 28.1069 32.5039 29.5 32.5039C30.8931 32.5039 32.2759 32.2919 33.6484 31.868C35.021 31.4441 36.117 30.9709 36.9365 30.4484C37.7559 29.9259 38.5036 29.4527 39.1797 29.0287C39.8557 28.6048 40.2962 28.3929 40.501 28.3929C41.7507 28.3929 42.8928 28.59 43.9273 28.9844C44.9619 29.3787 45.8377 29.9062 46.5547 30.5667C47.2717 31.2272 47.9068 32.0258 48.4599 32.9623C49.013 33.8989 49.4535 34.8601 49.7812 35.846C50.109 36.8318 50.3805 37.9015 50.5956 39.055C50.8107 40.2084 50.9541 41.283 51.0258 42.2787C51.0975 43.2745 51.1333 44.2948 51.1333 45.3398ZM19.6667 7.57143C19.6667 9.66146 18.8984 11.4459 17.362 12.9247C15.8255 14.4035 13.9715 15.1429 11.8 15.1429C9.62847 15.1429 7.77448 14.4035 6.23802 12.9247C4.70156 11.4459 3.93333 9.66146 3.93333 7.57143C3.93333 5.4814 4.70156 3.69699 6.23802 2.21819C7.77448 0.739397 9.62847 0 11.8 0C13.9715 0 15.8255 0.739397 17.362 2.21819C18.8984 3.69699 19.6667 5.4814 19.6667 7.57143ZM41.3 18.9286C41.3 22.0636 40.1477 24.7402 37.843 26.9584C35.5383 29.1766 32.7573 30.2857 29.5 30.2857C26.2427 30.2857 23.4617 29.1766 21.157 26.9584C18.8523 24.7402 17.7 22.0636 17.7 18.9286C17.7 15.7935 18.8523 13.1169 21.157 10.8987C23.4617 8.68052 26.2427 7.57143 29.5 7.57143C32.7573 7.57143 35.5383 8.68052 37.843 10.8987C40.1477 13.1169 41.3 15.7935 41.3 18.9286ZM59 25.5831C59 27.1211 58.4264 28.2893 57.2792 29.0879C56.1319 29.8864 54.7184 30.2857 53.0385 30.2857H48.9208C46.8108 27.8605 44.0964 26.5986 40.7776 26.5C42.437 24.1931 43.2667 21.6693 43.2667 18.9286C43.2667 18.3568 43.2155 17.7061 43.113 16.9766C44.4651 17.4301 45.8274 17.6568 47.2 17.6568C48.4087 17.6568 49.6276 17.4448 50.8568 17.0209C52.0859 16.597 53.0846 16.178 53.8529 15.764C54.6211 15.3499 55.0667 15.1429 55.1896 15.1429C57.7299 15.1429 59 18.623 59 25.5831ZM55.0667 7.57143C55.0667 9.66146 54.2984 11.4459 52.762 12.9247C51.2255 14.4035 49.3715 15.1429 47.2 15.1429C45.0285 15.1429 43.1745 14.4035 41.638 12.9247C40.1016 11.4459 39.3333 9.66146 39.3333 7.57143C39.3333 5.4814 40.1016 3.69699 41.638 2.21819C43.1745 0.739397 45.0285 0 47.2 0C49.3715 0 51.2255 0.739397 52.762 2.21819C54.2984 3.69699 55.0667 5.4814 55.0667 7.57143Z" fill="#5E5A5A"/>
</g>
<defs>
<clipPath id="clip0_8_214">
<rect width="59" height="53" fill="white"/>
</clipPath>
</defs>
</svg>
