<svg width="34" height="25" viewBox="0 0 34 25" fill="none" xmlns="http://www.w3.org/2000/svg">
<path fill-rule="evenodd" clip-rule="evenodd" d="M30.0769 1.92308H18.3077V11.5385H31.3846V2.88462C31.3846 2.6296 31.2468 2.38503 31.0016 2.20471C30.7564 2.02438 30.4237 1.92308 30.0769 1.92308ZM31.3846 13.4615H18.3077V23.0769H30.0769C30.4237 23.0769 30.7564 22.9756 31.0016 22.7953C31.2468 22.615 31.3846 22.3704 31.3846 22.1154V13.4615ZM15.6923 11.5385V1.92308H3.92308C3.57626 1.92308 3.24364 2.02438 2.9984 2.20471C2.75316 2.38503 2.61538 2.6296 2.61538 2.88462V11.5385H15.6923ZM2.61538 13.4615V22.1154C2.61538 22.3704 2.75316 22.615 2.9984 22.7953C3.24364 22.9756 3.57626 23.0769 3.92308 23.0769H15.6923V13.4615H2.61538ZM3.92308 0C2.88261 0 1.88476 0.303914 1.14904 0.844884C0.413323 1.38585 0 2.11957 0 2.88462V22.1154C0 22.8804 0.413323 23.6141 1.14904 24.1551C1.88476 24.6961 2.88261 25 3.92308 25H30.0769C31.1174 25 32.1152 24.6961 32.851 24.1551C33.5867 23.6141 34 22.8804 34 22.1154V2.88462C34 2.11957 33.5867 1.38585 32.851 0.844884C32.1152 0.303914 31.1174 0 30.0769 0H3.92308Z" fill="#333333"/>
</svg>
