<svg width="65" height="72" viewBox="0 0 65 72" fill="none" xmlns="http://www.w3.org/2000/svg">
<rect width="1440" height="1024" transform="translate(-285.471 -455.092) scale(1.00154)" fill="white"/>
<path d="M59.0306 22.4813L26.5307 58.2325C26.2476 58.5449 25.9112 58.7929 25.5409 58.962C25.1705 59.1312 24.7735 59.2183 24.3725 59.2183C23.9714 59.2183 23.5744 59.1312 23.204 58.962C22.8337 58.7929 22.4973 58.5449 22.2143 58.2325L7.99552 42.5913C7.7121 42.2795 7.48728 41.9094 7.33389 41.5021C7.18051 41.0947 7.10156 40.6581 7.10156 40.2172C7.10156 39.7763 7.18051 39.3397 7.33389 38.9324C7.48728 38.525 7.7121 38.1549 7.99552 37.8431C8.27894 37.5313 8.6154 37.284 8.98571 37.1153C9.35601 36.9466 9.7529 36.8597 10.1537 36.8597C10.5545 36.8597 10.9514 36.9466 11.3217 37.1153C11.692 37.284 12.0285 37.5313 12.3119 37.8431L24.375 51.1129L54.7193 17.7386C55.2917 17.109 56.068 16.7553 56.8775 16.7553C57.687 16.7553 58.4633 17.109 59.0357 17.7386C59.6081 18.3683 59.9297 19.2223 59.9297 20.1128C59.9297 21.0032 59.6081 21.8572 59.0357 22.4869L59.0306 22.4813Z" fill="#333333"/>
</svg>
