<svg width="72" height="72" viewBox="0 0 72 72" fill="none" xmlns="http://www.w3.org/2000/svg">
<g clip-path="url(#clip0_8_294)">
<path d="M64 8H8C6.93913 8 5.92172 8.42143 5.17157 9.17157C4.42143 9.92172 4 10.9391 4 12V60C4 61.0609 4.42143 62.0783 5.17157 62.8284C5.92172 63.5786 6.93913 64 8 64H64C65.0609 64 66.0783 63.5786 66.8284 62.8284C67.5786 62.0783 68 61.0609 68 60V12C68 10.9391 67.5786 9.92172 66.8284 9.17157C66.0783 8.42143 65.0609 8 64 8ZM8 60V12H64V60H8Z" fill="#333333"/>
<path d="M17.84 28C19.0267 28 20.1868 27.6481 21.1734 26.9888C22.1601 26.3295 22.9292 25.3925 23.3833 24.2961C23.8374 23.1997 23.9563 21.9933 23.7247 20.8295C23.4932 19.6656 22.9218 18.5965 22.0827 17.7574C21.2436 16.9182 20.1745 16.3468 19.0106 16.1153C17.8467 15.8838 16.6403 16.0026 15.5439 16.4567C14.4476 16.9109 13.5105 17.6799 12.8512 18.6666C12.1919 19.6533 11.84 20.8133 11.84 22C11.84 23.5913 12.4722 25.1174 13.5974 26.2426C14.7226 27.3679 16.2487 28 17.84 28ZM17.84 18.8C18.4738 18.796 19.0944 18.9803 19.6233 19.3296C20.1521 19.6788 20.5654 20.1771 20.8107 20.7615C21.0559 21.3459 21.1222 21.9899 21.001 22.6119C20.8798 23.234 20.5766 23.806 20.1299 24.2556C19.6831 24.7051 19.113 25.0119 18.4917 25.137C17.8704 25.2621 17.226 25.1999 16.6401 24.9583C16.0542 24.7167 15.5533 24.3066 15.2007 23.7799C14.8482 23.2532 14.66 22.6338 14.66 22C14.6653 21.1582 15.002 20.3524 15.5972 19.7572C16.1925 19.162 16.9983 18.8252 17.84 18.82V18.8Z" fill="#333333"/>
<path d="M45.56 30.74L34.76 41.54L26.76 33.54C26.3853 33.1675 25.8784 32.9584 25.35 32.9584C24.8217 32.9584 24.3148 33.1675 23.94 33.54L11.84 45.8V51.46L25.42 37.88L32 44.36L24.5 51.86H30L46.9 34.96L60 48V42.36L48.38 30.74C48.0053 30.3675 47.4984 30.1584 46.97 30.1584C46.4417 30.1584 45.9348 30.3675 45.56 30.74Z" fill="#333333"/>
</g>
<defs>
<clipPath id="clip0_8_294">
<rect width="72" height="72" fill="white"/>
</clipPath>
</defs>
</svg>
