<svg width="41" height="58" viewBox="0 0 41 58" fill="none" xmlns="http://www.w3.org/2000/svg">
<rect width="1440" height="1024" transform="translate(-505.086 -466.874) scale(1.00125)" fill="white"/>
<path d="M5.12499 5.75824H0V0H41V5.75824H35.875V11.5165C35.875 16.1663 33.784 19.9091 31.1497 22.9667C29.3483 25.057 27.1573 26.9831 24.9357 28.7912C27.1573 30.5993 29.3483 32.5254 31.1497 34.6156C33.784 37.6733 35.875 41.4161 35.875 46.0659V51.8241H41V57.5824H0V51.8241H5.12499V46.0659C5.12499 41.4161 7.21599 37.6733 9.85024 34.6156C11.6517 32.5254 13.8426 30.5993 16.0643 28.7912C13.8426 26.9831 11.6517 25.057 9.85024 22.9667C7.21599 19.9091 5.12499 16.1663 5.12499 11.5165V5.75824ZM10.25 5.75824V11.5165C10.25 13.4887 10.9162 15.3601 12.2257 17.2747H28.7743C30.0812 15.3601 30.75 13.4887 30.75 11.5165V5.75824H10.25ZM20.5 32.3095C17.8222 34.4343 15.3955 36.4583 13.5325 38.6205C13.0688 39.1546 12.6325 39.7179 12.2257 40.3077H28.7743C28.3674 39.718 27.9311 39.1547 27.4674 38.6205C25.6045 36.4583 23.1778 34.4343 20.5 32.3095Z" fill="#333333"/>
</svg>
