<svg width="63" height="59" viewBox="0 0 63 59" fill="none" xmlns="http://www.w3.org/2000/svg">
<path d="M15.75 54.0834C14.3062 54.0834 13.0707 53.6023 12.0435 52.6403C11.0162 51.6783 10.5017 50.5204 10.5 49.1667V9.83335C10.5 8.48127 11.0145 7.32421 12.0435 6.36219C13.0725 5.40016 14.308 4.91833 15.75 4.91669H47.25C48.6937 4.91669 49.9301 5.39852 50.9591 6.36219C51.9881 7.32585 52.5018 8.48291 52.5 9.83335V49.1667C52.5 50.5188 51.9864 51.6766 50.9591 52.6403C49.9319 53.604 48.6955 54.085 47.25 54.0834H15.75ZM28.875 27.0417L35.4375 23.3542L42 27.0417V9.83335H28.875V27.0417Z" fill="#5E5A5A"/>
</svg>
